<svg width="40px" height="40px" viewBox="0 0 1.2 1.2" fill="none" xmlns="http://www.w3.org/2000/svg"><path d="M0.45 0.25a0.05 0.05 0 1 0 0 0.1 0.05 0.05 0 0 0 0 -0.1zM0.308 0.25a0.15 0.15 0 0 1 0.283 0H0.95a0.05 0.05 0 1 1 0 0.1h-0.359a0.15 0.15 0 0 1 -0.283 0H0.25a0.05 0.05 0 0 1 0 -0.1h0.058zM0.75 0.55a0.05 0.05 0 1 0 0 0.1 0.05 0.05 0 0 0 0 -0.1zm-0.142 0a0.15 0.15 0 0 1 0.283 0H0.95a0.05 0.05 0 1 1 0 0.1h-0.058a0.15 0.15 0 0 1 -0.283 0H0.25a0.05 0.05 0 1 1 0 -0.1h0.359zM0.45 0.85a0.05 0.05 0 1 0 0 0.1 0.05 0.05 0 0 0 0 -0.1zm-0.142 0a0.15 0.15 0 0 1 0.283 0H0.95a0.05 0.05 0 1 1 0 0.1h-0.359a0.15 0.15 0 0 1 -0.283 0H0.25a0.05 0.05 0 1 1 0 -0.1h0.058z" fill="#0D0D0D"/></svg>