<svg fill="#000000" width="40px" height="40px" viewBox="0 0 1.2 1.2" id="star" data-name="Flat Color" xmlns="http://www.w3.org/2000/svg" class="icon flat-color"><path id="primary" d="M1.1 0.491a0.05 0.05 0 0 0 -0.042 -0.034l-0.285 -0.039 -0.13 -0.24a0.05 0.05 0 0 0 -0.088 0L0.429 0.417l-0.285 0.039a0.05 0.05 0 0 0 -0.041 0.034 0.05 0.05 0 0 0 0.014 0.05l0.205 0.186 -0.05 0.262a0.05 0.05 0 0 0 0.073 0.056L0.6 0.919l0.256 0.126a0.05 0.05 0 0 0 0.022 0.005 0.05 0.05 0 0 0 0.05 -0.059l-0.05 -0.262 0.205 -0.186A0.05 0.05 0 0 0 1.1 0.491Z" style="fill: rgb(0, 0, 0);"/></svg>